<svg xmlns="http://www.w3.org/2000/svg" width="870" height="1310" font-family="Segoe UI, sans-serif" font-size="11">
<rect width="870" height="1310" fill="#ffffff"/>
<line x1="135" y1="99" x2="435" y2="81" stroke="#c0392b" stroke-width="1.5" stroke-dasharray="4,3"/>
<line x1="435" y1="81" x2="735" y2="162" stroke="#c0392b" stroke-width="1.5" stroke-dasharray="4,3"/>
<line x1="735" y1="162" x2="735" y2="713" stroke="#c0392b" stroke-width="1.5" stroke-dasharray="4,3"/>
<line x1="435" y1="469" x2="735" y2="442" stroke="#c0392b" stroke-width="1.5" stroke-dasharray="4,3"/>
<line x1="135" y1="803" x2="735" y2="162" stroke="#c0392b" stroke-width="1.5" stroke-dasharray="4,3"/>
<line x1="435" y1="785" x2="735" y2="713" stroke="#c0392b" stroke-width="1.5" stroke-dasharray="4,3"/>
<line x1="135" y1="1146" x2="735" y2="713" stroke="#c0392b" stroke-width="1.5" stroke-dasharray="4,3"/>
<rect x="20" y="20" width="230" height="158" rx="6" fill="#f4f6fb" stroke="#34495e" stroke-width="1.5"/>
<rect x="20" y="20" width="230" height="26" rx="6" fill="#3d8bfd"/>
<text x="135" y="38" text-anchor="middle" fill="white" font-weight="bold">iv_points</text>
<text x="30" y="60" font-weight="bold" fill="#2c3e50">🔑 point_id</text>
<text x="240" y="60" text-anchor="end" fill="#7f8c8d">INTEGER</text>
<text x="30" y="78" font-weight="normal" fill="#2c3e50">run_id</text>
<text x="240" y="78" text-anchor="end" fill="#7f8c8d">INTEGER</text>
<text x="30" y="96" font-weight="normal" fill="#2c3e50">point_order</text>
<text x="240" y="96" text-anchor="end" fill="#7f8c8d">INTEGER</text>
<text x="30" y="114" font-weight="normal" fill="#2c3e50">drain_i</text>
<text x="240" y="114" text-anchor="end" fill="#7f8c8d">REAL</text>
<text x="30" y="132" font-weight="normal" fill="#2c3e50">drain_v</text>
<text x="240" y="132" text-anchor="end" fill="#7f8c8d">REAL</text>
<text x="30" y="150" font-weight="normal" fill="#2c3e50">gate_i</text>
<text x="240" y="150" text-anchor="end" fill="#7f8c8d">REAL</text>
<text x="30" y="168" font-weight="normal" fill="#2c3e50">gate_v</text>
<text x="240" y="168" text-anchor="end" fill="#7f8c8d">REAL</text>
<rect x="320" y="20" width="230" height="122" rx="6" fill="#f4f6fb" stroke="#34495e" stroke-width="1.5"/>
<rect x="320" y="20" width="230" height="26" rx="6" fill="#3d8bfd"/>
<text x="435" y="38" text-anchor="middle" fill="white" font-weight="bold">iv_runs</text>
<text x="330" y="60" font-weight="bold" fill="#2c3e50">🔑 run_id</text>
<text x="540" y="60" text-anchor="end" fill="#7f8c8d">INTEGER</text>
<text x="330" y="78" font-weight="normal" fill="#2c3e50">sweep_id</text>
<text x="540" y="78" text-anchor="end" fill="#7f8c8d">INTEGER</text>
<text x="330" y="96" font-weight="normal" fill="#2c3e50">run_number</text>
<text x="540" y="96" text-anchor="end" fill="#7f8c8d">INTEGER</text>
<text x="330" y="114" font-weight="normal" fill="#2c3e50">sheet_name</text>
<text x="540" y="114" text-anchor="end" fill="#7f8c8d">TEXT</text>
<text x="330" y="132" font-weight="normal" fill="#2c3e50">bias_group</text>
<text x="540" y="132" text-anchor="end" fill="#7f8c8d">INTEGER</text>
<rect x="620" y="20" width="230" height="284" rx="6" fill="#f4f6fb" stroke="#34495e" stroke-width="1.5"/>
<rect x="620" y="20" width="230" height="26" rx="6" fill="#3d8bfd"/>
<text x="735" y="38" text-anchor="middle" fill="white" font-weight="bold">iv_sweeps</text>
<text x="630" y="60" font-weight="bold" fill="#2c3e50">🔑 sweep_id</text>
<text x="840" y="60" text-anchor="end" fill="#7f8c8d">INTEGER</text>
<text x="630" y="78" font-weight="normal" fill="#2c3e50">source_file</text>
<text x="840" y="78" text-anchor="end" fill="#7f8c8d">TEXT</text>
<text x="630" y="96" font-weight="normal" fill="#2c3e50">run_start</text>
<text x="840" y="96" text-anchor="end" fill="#7f8c8d">INTEGER</text>
<text x="630" y="114" font-weight="normal" fill="#2c3e50">sweep_type</text>
<text x="840" y="114" text-anchor="end" fill="#7f8c8d">TEXT</text>
<text x="630" y="132" font-weight="normal" fill="#2c3e50">temperature_c</text>
<text x="840" y="132" text-anchor="end" fill="#7f8c8d">REAL</text>
<text x="630" y="150" font-weight="normal" fill="#2c3e50">die_col_row</text>
<text x="840" y="150" text-anchor="end" fill="#7f8c8d">TEXT</text>
<text x="630" y="168" font-weight="normal" fill="#2c3e50">subdie_col_row</text>
<text x="840" y="168" text-anchor="end" fill="#7f8c8d">TEXT</text>
<text x="630" y="186" font-weight="normal" fill="#2c3e50">channel_length</text>
<text x="840" y="186" text-anchor="end" fill="#7f8c8d">REAL</text>
<text x="630" y="204" font-weight="normal" fill="#2c3e50">channel_width</text>
<text x="840" y="204" text-anchor="end" fill="#7f8c8d">REAL</text>
<text x="630" y="222" font-weight="normal" fill="#2c3e50">instrument_ch</text>
<text x="840" y="222" text-anchor="end" fill="#7f8c8d">TEXT</text>
<text x="630" y="240" font-weight="normal" fill="#2c3e50">material_stack</text>
<text x="840" y="240" text-anchor="end" fill="#7f8c8d">TEXT</text>
<text x="630" y="258" font-weight="normal" fill="#2c3e50">extra_temp_c</text>
<text x="840" y="258" text-anchor="end" fill="#7f8c8d">REAL</text>
<text x="630" y="276" font-weight="normal" fill="#2c3e50">wafer_id</text>
<text x="840" y="276" text-anchor="end" fill="#7f8c8d">TEXT</text>
<text x="630" y="294" font-weight="normal" fill="#2c3e50">imported_at</text>
<text x="840" y="294" text-anchor="end" fill="#7f8c8d">DATETIME</text>
<rect x="20" y="354" width="230" height="158" rx="6" fill="#f4f6fb" stroke="#34495e" stroke-width="1.5"/>
<rect x="20" y="354" width="230" height="26" rx="6" fill="#3d8bfd"/>
<text x="135" y="372" text-anchor="middle" fill="white" font-weight="bold">quality_criteria</text>
<text x="30" y="394" font-weight="bold" fill="#2c3e50">🔑 criteria_id</text>
<text x="240" y="394" text-anchor="end" fill="#7f8c8d">INTEGER</text>
<text x="30" y="412" font-weight="normal" fill="#2c3e50">parameter_name</text>
<text x="240" y="412" text-anchor="end" fill="#7f8c8d">TEXT</text>
<text x="30" y="430" font-weight="normal" fill="#2c3e50">target_value</text>
<text x="240" y="430" text-anchor="end" fill="#7f8c8d">REAL</text>
<text x="30" y="448" font-weight="normal" fill="#2c3e50">tolerance_lower</text>
<text x="240" y="448" text-anchor="end" fill="#7f8c8d">REAL</text>
<text x="30" y="466" font-weight="normal" fill="#2c3e50">tolerance_upper</text>
<text x="240" y="466" text-anchor="end" fill="#7f8c8d">REAL</text>
<text x="30" y="484" font-weight="normal" fill="#2c3e50">is_active</text>
<text x="240" y="484" text-anchor="end" fill="#7f8c8d">BOOLEAN</text>
<text x="30" y="502" font-weight="normal" fill="#2c3e50">description</text>
<text x="240" y="502" text-anchor="end" fill="#7f8c8d">TEXT</text>
<rect x="320" y="354" width="230" height="230" rx="6" fill="#f4f6fb" stroke="#34495e" stroke-width="1.5"/>
<rect x="320" y="354" width="230" height="26" rx="6" fill="#3d8bfd"/>
<text x="435" y="372" text-anchor="middle" fill="white" font-weight="bold">recipe_steps</text>
<text x="330" y="394" font-weight="bold" fill="#2c3e50">🔑 step_id</text>
<text x="540" y="394" text-anchor="end" fill="#7f8c8d">INTEGER</text>
<text x="330" y="412" font-weight="normal" fill="#2c3e50">recipe_id</text>
<text x="540" y="412" text-anchor="end" fill="#7f8c8d">INTEGER</text>
<text x="330" y="430" font-weight="normal" fill="#2c3e50">step_order</text>
<text x="540" y="430" text-anchor="end" fill="#7f8c8d">INTEGER</text>
<text x="330" y="448" font-weight="normal" fill="#2c3e50">process_type</text>
<text x="540" y="448" text-anchor="end" fill="#7f8c8d">TEXT</text>
<text x="330" y="466" font-weight="normal" fill="#2c3e50">process_name</text>
<text x="540" y="466" text-anchor="end" fill="#7f8c8d">TEXT</text>
<text x="330" y="484" font-weight="normal" fill="#2c3e50">temperature</text>
<text x="540" y="484" text-anchor="end" fill="#7f8c8d">REAL</text>
<text x="330" y="502" font-weight="normal" fill="#2c3e50">duration</text>
<text x="540" y="502" text-anchor="end" fill="#7f8c8d">REAL</text>
<text x="330" y="520" font-weight="normal" fill="#2c3e50">gas_mixture</text>
<text x="540" y="520" text-anchor="end" fill="#7f8c8d">TEXT</text>
<text x="330" y="538" font-weight="normal" fill="#2c3e50">pressure</text>
<text x="540" y="538" text-anchor="end" fill="#7f8c8d">REAL</text>
<text x="330" y="556" font-weight="normal" fill="#2c3e50">power</text>
<text x="540" y="556" text-anchor="end" fill="#7f8c8d">REAL</text>
<text x="330" y="574" font-weight="normal" fill="#2c3e50">notes</text>
<text x="540" y="574" text-anchor="end" fill="#7f8c8d">TEXT</text>
<rect x="620" y="354" width="230" height="176" rx="6" fill="#f4f6fb" stroke="#34495e" stroke-width="1.5"/>
<rect x="620" y="354" width="230" height="26" rx="6" fill="#3d8bfd"/>
<text x="735" y="372" text-anchor="middle" fill="white" font-weight="bold">recipes</text>
<text x="630" y="394" font-weight="bold" fill="#2c3e50">🔑 recipe_id</text>
<text x="840" y="394" text-anchor="end" fill="#7f8c8d">INTEGER</text>
<text x="630" y="412" font-weight="normal" fill="#2c3e50">recipe_name</text>
<text x="840" y="412" text-anchor="end" fill="#7f8c8d">TEXT</text>
<text x="630" y="430" font-weight="normal" fill="#2c3e50">substrate_type</text>
<text x="840" y="430" text-anchor="end" fill="#7f8c8d">TEXT</text>
<text x="630" y="448" font-weight="normal" fill="#2c3e50">target_process_node</text>
<text x="840" y="448" text-anchor="end" fill="#7f8c8d">TEXT</text>
<text x="630" y="466" font-weight="normal" fill="#2c3e50">description</text>
<text x="840" y="466" text-anchor="end" fill="#7f8c8d">TEXT</text>
<text x="630" y="484" font-weight="normal" fill="#2c3e50">created_date</text>
<text x="840" y="484" text-anchor="end" fill="#7f8c8d">DATETIME</text>
<text x="630" y="502" font-weight="normal" fill="#2c3e50">last_modified_date</text>
<text x="840" y="502" text-anchor="end" fill="#7f8c8d">DATETIME</text>
<text x="630" y="520" font-weight="normal" fill="#2c3e50">is_active</text>
<text x="840" y="520" text-anchor="end" fill="#7f8c8d">BOOLEAN</text>
<rect x="20" y="634" width="230" height="338" rx="6" fill="#f4f6fb" stroke="#34495e" stroke-width="1.5"/>
<rect x="20" y="634" width="230" height="26" rx="6" fill="#3d8bfd"/>
<text x="135" y="652" text-anchor="middle" fill="white" font-weight="bold">tft_curve_features</text>
<text x="30" y="674" font-weight="bold" fill="#2c3e50">🔑 feature_id</text>
<text x="240" y="674" text-anchor="end" fill="#7f8c8d">INTEGER</text>
<text x="30" y="692" font-weight="normal" fill="#2c3e50">sweep_id</text>
<text x="240" y="692" text-anchor="end" fill="#7f8c8d">INTEGER</text>
<text x="30" y="710" font-weight="normal" fill="#2c3e50">source_file</text>
<text x="240" y="710" text-anchor="end" fill="#7f8c8d">TEXT</text>
<text x="30" y="728" font-weight="normal" fill="#2c3e50">vth</text>
<text x="240" y="728" text-anchor="end" fill="#7f8c8d">REAL</text>
<text x="30" y="746" font-weight="normal" fill="#2c3e50">mu_sat</text>
<text x="240" y="746" text-anchor="end" fill="#7f8c8d">REAL</text>
<text x="30" y="764" font-weight="normal" fill="#2c3e50">ss_min</text>
<text x="240" y="764" text-anchor="end" fill="#7f8c8d">REAL</text>
<text x="30" y="782" font-weight="normal" fill="#2c3e50">on_off_ratio</text>
<text x="240" y="782" text-anchor="end" fill="#7f8c8d">REAL</text>
<text x="30" y="800" font-weight="normal" fill="#2c3e50">ion</text>
<text x="240" y="800" text-anchor="end" fill="#7f8c8d">REAL</text>
<text x="30" y="818" font-weight="normal" fill="#2c3e50">ioff</text>
<text x="240" y="818" text-anchor="end" fill="#7f8c8d">REAL</text>
<text x="30" y="836" font-weight="normal" fill="#2c3e50">gm_max</text>
<text x="240" y="836" text-anchor="end" fill="#7f8c8d">REAL</text>
<text x="30" y="854" font-weight="normal" fill="#2c3e50">gm_max_vg</text>
<text x="240" y="854" text-anchor="end" fill="#7f8c8d">REAL</text>
<text x="30" y="872" font-weight="normal" fill="#2c3e50">cox</text>
<text x="240" y="872" text-anchor="end" fill="#7f8c8d">REAL</text>
<text x="30" y="890" font-weight="normal" fill="#2c3e50">w_um</text>
<text x="240" y="890" text-anchor="end" fill="#7f8c8d">REAL</text>
<text x="30" y="908" font-weight="normal" fill="#2c3e50">l_um</text>
<text x="240" y="908" text-anchor="end" fill="#7f8c8d">REAL</text>
<text x="30" y="926" font-weight="normal" fill="#2c3e50">tox_nm</text>
<text x="240" y="926" text-anchor="end" fill="#7f8c8d">REAL</text>
<text x="30" y="944" font-weight="normal" fill="#2c3e50">eps_r</text>
<text x="240" y="944" text-anchor="end" fill="#7f8c8d">REAL</text>
<text x="30" y="962" font-weight="normal" fill="#2c3e50">computed_at</text>
<text x="240" y="962" text-anchor="end" fill="#7f8c8d">DATETIME</text>
<rect x="320" y="634" width="230" height="302" rx="6" fill="#f4f6fb" stroke="#34495e" stroke-width="1.5"/>
<rect x="320" y="634" width="230" height="26" rx="6" fill="#3d8bfd"/>
<text x="435" y="652" text-anchor="middle" fill="white" font-weight="bold">tft_measurements</text>
<text x="330" y="674" font-weight="bold" fill="#2c3e50">🔑 measurement_id</text>
<text x="540" y="674" text-anchor="end" fill="#7f8c8d">INTEGER</text>
<text x="330" y="692" font-weight="normal" fill="#2c3e50">wafer_id</text>
<text x="540" y="692" text-anchor="end" fill="#7f8c8d">TEXT</text>
<text x="330" y="710" font-weight="normal" fill="#2c3e50">device_id</text>
<text x="540" y="710" text-anchor="end" fill="#7f8c8d">TEXT</text>
<text x="330" y="728" font-weight="normal" fill="#2c3e50">position_x</text>
<text x="540" y="728" text-anchor="end" fill="#7f8c8d">REAL</text>
<text x="330" y="746" font-weight="normal" fill="#2c3e50">position_y</text>
<text x="540" y="746" text-anchor="end" fill="#7f8c8d">REAL</text>
<text x="330" y="764" font-weight="normal" fill="#2c3e50">vth</text>
<text x="540" y="764" text-anchor="end" fill="#7f8c8d">REAL</text>
<text x="330" y="782" font-weight="normal" fill="#2c3e50">mobility</text>
<text x="540" y="782" text-anchor="end" fill="#7f8c8d">REAL</text>
<text x="330" y="800" font-weight="normal" fill="#2c3e50">on_off_ratio</text>
<text x="540" y="800" text-anchor="end" fill="#7f8c8d">REAL</text>
<text x="330" y="818" font-weight="normal" fill="#2c3e50">subthreshold_swing</text>
<text x="540" y="818" text-anchor="end" fill="#7f8c8d">REAL</text>
<text x="330" y="836" font-weight="normal" fill="#2c3e50">max_drain_current</text>
<text x="540" y="836" text-anchor="end" fill="#7f8c8d">REAL</text>
<text x="330" y="854" font-weight="normal" fill="#2c3e50">leakage_current</text>
<text x="540" y="854" text-anchor="end" fill="#7f8c8d">REAL</text>
<text x="330" y="872" font-weight="normal" fill="#2c3e50">is_functional</text>
<text x="540" y="872" text-anchor="end" fill="#7f8c8d">BOOLEAN</text>
<text x="330" y="890" font-weight="normal" fill="#2c3e50">defect_type</text>
<text x="540" y="890" text-anchor="end" fill="#7f8c8d">TEXT</text>
<text x="330" y="908" font-weight="normal" fill="#2c3e50">measurement_timestamp</text>
<text x="540" y="908" text-anchor="end" fill="#7f8c8d">DATETIME</text>
<text x="330" y="926" font-weight="normal" fill="#2c3e50">notes</text>
<text x="540" y="926" text-anchor="end" fill="#7f8c8d">TEXT</text>
<rect x="620" y="634" width="230" height="158" rx="6" fill="#f4f6fb" stroke="#34495e" stroke-width="1.5"/>
<rect x="620" y="634" width="230" height="26" rx="6" fill="#3d8bfd"/>
<text x="735" y="652" text-anchor="middle" fill="white" font-weight="bold">wafers</text>
<text x="630" y="674" font-weight="bold" fill="#2c3e50">🔑 wafer_id</text>
<text x="840" y="674" text-anchor="end" fill="#7f8c8d">TEXT</text>
<text x="630" y="692" font-weight="normal" fill="#2c3e50">wafer_name</text>
<text x="840" y="692" text-anchor="end" fill="#7f8c8d">TEXT</text>
<text x="630" y="710" font-weight="normal" fill="#2c3e50">fabrication_date</text>
<text x="840" y="710" text-anchor="end" fill="#7f8c8d">DATETIME</text>
<text x="630" y="728" font-weight="normal" fill="#2c3e50">process_node</text>
<text x="840" y="728" text-anchor="end" fill="#7f8c8d">TEXT</text>
<text x="630" y="746" font-weight="normal" fill="#2c3e50">substrate_material</text>
<text x="840" y="746" text-anchor="end" fill="#7f8c8d">TEXT</text>
<text x="630" y="764" font-weight="normal" fill="#2c3e50">initial_device_count</text>
<text x="840" y="764" text-anchor="end" fill="#7f8c8d">INTEGER</text>
<text x="630" y="782" font-weight="normal" fill="#2c3e50">created_at</text>
<text x="840" y="782" text-anchor="end" fill="#7f8c8d">DATETIME</text>
<rect x="20" y="1022" width="230" height="248" rx="6" fill="#f4f6fb" stroke="#34495e" stroke-width="1.5"/>
<rect x="20" y="1022" width="230" height="26" rx="6" fill="#3d8bfd"/>
<text x="135" y="1040" text-anchor="middle" fill="white" font-weight="bold">yield_metrics</text>
<text x="30" y="1062" font-weight="bold" fill="#2c3e50">🔑 metric_id</text>
<text x="240" y="1062" text-anchor="end" fill="#7f8c8d">INTEGER</text>
<text x="30" y="1080" font-weight="normal" fill="#2c3e50">wafer_id</text>
<text x="240" y="1080" text-anchor="end" fill="#7f8c8d">TEXT</text>
<text x="30" y="1098" font-weight="normal" fill="#2c3e50">calculation_timestamp</text>
<text x="240" y="1098" text-anchor="end" fill="#7f8c8d">DATETIME</text>
<text x="30" y="1116" font-weight="normal" fill="#2c3e50">total_devices</text>
<text x="240" y="1116" text-anchor="end" fill="#7f8c8d">INTEGER</text>
<text x="30" y="1134" font-weight="normal" fill="#2c3e50">functional_devices</text>
<text x="240" y="1134" text-anchor="end" fill="#7f8c8d">INTEGER</text>
<text x="30" y="1152" font-weight="normal" fill="#2c3e50">overall_yield_percentage</text>
<text x="240" y="1152" text-anchor="end" fill="#7f8c8d">REAL</text>
<text x="30" y="1170" font-weight="normal" fill="#2c3e50">vth_pass_count</text>
<text x="240" y="1170" text-anchor="end" fill="#7f8c8d">INTEGER</text>
<text x="30" y="1188" font-weight="normal" fill="#2c3e50">mobility_pass_count</text>
<text x="240" y="1188" text-anchor="end" fill="#7f8c8d">INTEGER</text>
<text x="30" y="1206" font-weight="normal" fill="#2c3e50">on_off_ratio_pass_count</text>
<text x="240" y="1206" text-anchor="end" fill="#7f8c8d">INTEGER</text>
<text x="30" y="1224" font-weight="normal" fill="#2c3e50">defect_density_per_cm2</text>
<text x="240" y="1224" text-anchor="end" fill="#7f8c8d">REAL</text>
<text x="30" y="1242" font-weight="normal" fill="#2c3e50">dominant_defect_type</text>
<text x="240" y="1242" text-anchor="end" fill="#7f8c8d">TEXT</text>
<text x="30" y="1260" font-weight="normal" fill="#2c3e50">notes</text>
<text x="240" y="1260" text-anchor="end" fill="#7f8c8d">TEXT</text>
</svg>